Coordinates
version=1
nRows=10
nColumns=40
inDegrees=yes

Units are S.I. units (second, meters, Newtons, ...)
If the header above contains a line with 'inDegrees', this indicates whether rotational values are in degrees (yes) or radians (no).

endheader
time	pelvis_tilt	pelvis_list	pelvis_rotation	pelvis_tx	pelvis_ty	pelvis_tz	hip_flexion_r	hip_adduction_r	hip_rotation_r	knee_angle_r	knee_angle_r_beta	ankle_angle_r	subtalar_angle_r	mtp_angle_r	hip_flexion_l	hip_adduction_l	hip_rotation_l	knee_angle_l	knee_angle_l_beta	ankle_angle_l	subtalar_angle_l	mtp_angle_l	lumbar_extension	lumbar_bending	lumbar_rotation	arm_flex_r	arm_add_r	arm_rot_r	elbow_flex_r	pro_sup_r	wrist_flex_r	wrist_dev_r	arm_flex_l	arm_add_l	arm_rot_l	elbow_flex_l	pro_sup_l	wrist_flex_l	wrist_dev_l
     14.95500000	    -89.40424820	     73.67488719	    -88.90946306	      0.84360550	      0.28078193	      0.57480531	     45.00000012	     -9.99999999	      0.00000000	     60.00014062	      1.04720001	     -4.99999985	      0.00000000	      0.00000000	     45.00000012	     -9.99999999	      0.00000000	     60.00014062	      1.04720001	     -4.99999985	      0.00000000	      0.00000000	    -15.97734959	      0.26709933	      2.34200778	      4.69903356	    -31.17350153	     39.26841343	     84.88240544	     87.86809954	      0.00000000	      0.00000000	      1.24063226	    -25.49274240	     25.10086450	     74.25571325	     89.01491328	      0.00000000	      0.00000000
     14.96000000	    -89.39772680	     73.61669183	    -88.92731240	      0.84354973	      0.28079638	      0.57491374	     45.00000012	     -9.99999999	      0.00000000	     60.00014062	      1.04720001	     -4.99999985	      0.00000000	      0.00000000	     45.00000012	     -9.99999999	      0.00000000	     60.00014062	      1.04720001	     -4.99999985	      0.00000000	      0.00000000	    -16.03778610	      0.26600858	      2.37209347	      4.65617963	    -31.17109428	     39.19235905	     84.89928015	     87.91141188	      0.00000000	      0.00000000	      1.24854384	    -25.50206763	     25.12113877	     74.29160246	     88.99597885	      0.00000000	      0.00000000
     14.96500000	    -89.40236425	     73.61304658	    -88.92508229	      0.84356325	      0.28078517	      0.57491719	     45.00000012	     -9.99999999	      0.00000000	     60.00014062	      1.04720001	     -4.99999985	      0.00000000	      0.00000000	     45.00000012	     -9.99999999	      0.00000000	     60.00014062	      1.04720001	     -4.99999985	      0.00000000	      0.00000000	    -16.04594957	      0.26709208	      2.36023322	      4.66575769	    -31.17252435	     39.20908177	     84.90056896	     87.92404788	      0.00000000	      0.00000000	      1.22668772	    -25.48594301	     25.06955544	     74.28668477	     89.00271627	      0.00000000	      0.00000000
     14.97000000	    -89.40616911	     73.59393776	    -88.89092703	      0.84355359	      0.28073441	      0.57498416	     45.00000012	     -9.99999999	      0.00000000	     60.00014062	      1.04720001	     -4.99999985	      0.00000000	      0.00000000	     45.00000012	     -9.99999999	      0.00000000	     60.00014062	      1.04720001	     -4.99999985	      0.00000000	      0.00000000	    -16.06574061	      0.27784320	      2.33668544	      4.66755621	    -31.17387937	     39.21483018	     84.88977798	     87.91591941	      0.00000000	      0.00000000	      1.24249851	    -25.49640791	     25.12472279	     74.27658418	     89.00675311	      0.00000000	      0.00000000
     14.97500000	    -89.40385681	     73.59311594	    -88.89206617	      0.84354778	      0.28071206	      0.57499008	     45.00000012	     -9.99999999	      0.00000000	     60.00014062	      1.04720001	     -4.99999985	      0.00000000	      0.00000000	     45.00000012	     -9.99999999	      0.00000000	     60.00014062	      1.04720001	     -4.99999985	      0.00000000	      0.00000000	    -16.06688170	      0.28124331	      2.33090020	      4.66693776	    -31.18631624	     39.22888103	     84.91584080	     87.90200520	      0.00000000	      0.00000000	      1.24056800	    -25.49046445	     25.10702582	     74.26916327	     89.01284618	      0.00000000	      0.00000000
     14.98000000	    -89.40471647	     73.55425649	    -88.91484802	      0.84352963	      0.28077115	      0.57505802	     45.00000012	     -9.99999999	      0.00000000	     60.00014062	      1.04720001	     -4.99999985	      0.00000000	      0.00000000	     45.00000012	     -9.99999999	      0.00000000	     60.00014062	      1.04720001	     -4.99999985	      0.00000000	      0.00000000	    -16.10696280	      0.27275020	      2.29361645	      4.77194242	    -31.18082014	     39.34063235	     84.86575791	     87.96239345	      0.00000000	      0.00000000	      1.13945731	    -25.47129909	     24.93579679	     74.34848833	     89.00150235	      0.00000000	      0.00000000
     14.98500000	    -89.40365234	     73.58467976	    -88.92601738	      0.84352041	      0.28076398	      0.57501280	     45.00000012	     -9.99999999	      0.00000000	     60.00014062	      1.04720001	     -4.99999985	      0.00000000	      0.00000000	     45.00000012	     -9.99999999	      0.00000000	     60.00014062	      1.04720001	     -4.99999985	      0.00000000	      0.00000000	    -16.07429326	      0.27591249	      2.35121367	      4.66989555	    -31.18075943	     39.22674528	     84.90421616	     87.92975512	      0.00000000	      0.00000000	      1.21229510	    -25.48060446	     25.06892350	     74.29542662	     89.00437600	      0.00000000	      0.00000000
     14.99000000	    -89.40643805	     73.57169196	    -88.91756647	      0.84356252	      0.28079123	      0.57503285	     45.00000012	     -9.99999999	      0.00000000	     60.00014062	      1.04720001	     -4.99999985	      0.00000000	      0.00000000	     45.00000012	     -9.99999999	      0.00000000	     60.00014062	      1.04720001	     -4.99999985	      0.00000000	      0.00000000	    -16.09241861	      0.27455487	      2.33336587	      4.70169322	    -31.18204974	     39.26818072	     84.89564138	     87.95219466	      0.00000000	      0.00000000	      1.21174474	    -25.47515797	     25.05754435	     74.28688302	     89.00270210	      0.00000000	      0.00000000
     14.99500000	    -89.40468397	     73.57662832	    -88.92771988	      0.84356551	      0.28083152	      0.57501366	     45.00000012	     -9.99999999	      0.00000000	     60.00014062	      1.04720001	     -4.99999985	      0.00000000	      0.00000000	     45.00000012	     -9.99999999	      0.00000000	     60.00014062	      1.04720001	     -4.99999985	      0.00000000	      0.00000000	    -16.08893815	      0.27121288	      2.34659778	      4.68046425	    -31.17094862	     39.23362276	     84.90808395	     87.93915355	      0.00000000	      0.00000000	      1.21359426	    -25.47511858	     25.05033325	     74.29435943	     88.99906220	      0.00000000	      0.00000000
     15.00000000	    -89.40169494	     73.59120917	    -88.92763808	      0.84354071	      0.28080802	      0.57498073	     45.00000012	     -9.99999999	      0.00000000	     60.00014062	      1.04720001	     -4.99999985	      0.00000000	      0.00000000	     45.00000012	     -9.99999999	      0.00000000	     60.00014062	      1.04720001	     -4.99999985	      0.00000000	      0.00000000	    -16.07009084	      0.27495669	      2.32291087	      4.69804058	    -31.17538126	     39.26470713	     84.91600214	     87.91828645	      0.00000000	      0.00000000	      1.16635830	    -25.47090358	     24.97498666	     74.31570964	     89.00832254	      0.00000000	      0.00000000
